<?xml version="1.0" encoding="UTF-8" standalone="no"?>
<!-- Created with Inkscape (http://www.inkscape.org/) -->

<svg
   width="233.74323mm"
   height="86.610062mm"
   viewBox="0 0 233.74322 86.610061"
   version="1.1"
   id="svg5"
   inkscape:version="1.2.2 (732a01da63, 2022-12-09)"
   sodipodi:docname="kso.svg"
   xmlns:inkscape="http://www.inkscape.org/namespaces/inkscape"
   xmlns:sodipodi="http://sodipodi.sourceforge.net/DTD/sodipodi-0.dtd"
   xmlns="http://www.w3.org/2000/svg"
   xmlns:svg="http://www.w3.org/2000/svg">
  <sodipodi:namedview
     id="namedview7"
     pagecolor="#ffffff"
     bordercolor="#000000"
     borderopacity="0.25"
     inkscape:showpageshadow="2"
     inkscape:pageopacity="0.0"
     inkscape:pagecheckerboard="true"
     inkscape:deskcolor="#d1d1d1"
     inkscape:document-units="mm"
     showgrid="false"
     inkscape:zoom="0.72515432"
     inkscape:cx="415.77357"
     inkscape:cy="-122.04299"
     inkscape:window-width="1920"
     inkscape:window-height="1001"
     inkscape:window-x="-9"
     inkscape:window-y="-9"
     inkscape:window-maximized="1"
     inkscape:current-layer="layer1" />
  <defs
     id="defs2" />
  <g
     inkscape:label="Layer 1"
     inkscape:groupmode="layer"
     id="layer1"
     transform="translate(-42.548491,-94.461646)">
    <path
       style="opacity:1;fill:none;fill-opacity:1;stroke:#908e8f;stroke-width:4.786;stroke-linecap:square;stroke-dasharray:none;stroke-opacity:1;paint-order:fill markers stroke"
       d="M 44.941491,96.854649 V 178.67871"
       id="path910" />
    <path
       style="opacity:1;fill:none;fill-opacity:1;stroke:#908e8f;stroke-width:4.786;stroke-linecap:square;stroke-dasharray:none;stroke-opacity:1;paint-order:fill markers stroke"
       d="M 52.914136,96.854649 V 178.67871"
       id="path912" />
    <path
       style="opacity:1;fill:none;fill-opacity:1;stroke:#908e8f;stroke-width:4.786;stroke-linecap:square;stroke-dasharray:none;stroke-opacity:1;paint-order:fill markers stroke"
       d="M 60.886781,96.854649 V 178.67871"
       id="path914" />
    <path
       style="opacity:1;fill:none;fill-opacity:1;stroke:#908e8f;stroke-width:4.786;stroke-linecap:square;stroke-dasharray:none;stroke-opacity:1;paint-order:fill markers stroke"
       d="M 68.859426,96.854649 V 178.67871"
       id="path916" />
    <path
       style="opacity:1;fill:none;fill-opacity:1;stroke:#908e8f;stroke-width:4.786;stroke-linecap:square;stroke-dasharray:none;stroke-opacity:1;paint-order:fill markers stroke"
       d="M 76.832071,96.854649 V 178.67871"
       id="path918" />
    <path
       style="opacity:1;fill:none;fill-opacity:1;stroke:#908e8f;stroke-width:4.786;stroke-linecap:square;stroke-dasharray:none;stroke-opacity:1;paint-order:fill markers stroke"
       d="M 84.804716,96.854649 V 178.67871"
       id="path920" />
    <g
       aria-label="Mirković"
       id="text1702"
       style="font-weight:600;font-size:44.5062px;font-family:Poppins;-inkscape-font-specification:'Poppins Semi-Bold';opacity:1;fill:#867d76;stroke-width:2.15985;stroke-linecap:square;paint-order:fill markers stroke">
      <path
         d="m 128.70905,98.956772 v 30.931808 h -5.07371 v -21.18495 l -9.43531,21.18495 h -3.51599 l -9.47982,-21.18495 v 21.18495 H 96.130514 V 98.956772 h 5.474266 l 10.85951,24.255878 10.81501,-24.255878 z"
         style="font-weight:500;-inkscape-font-specification:'Poppins Medium'"
         id="path320" />
      <path
         d="m 137.96634,102.11671 q -1.37969,0 -2.31432,-0.93463 -0.93463,-0.93463 -0.93463,-2.31432 0,-1.379692 0.93463,-2.314323 0.93463,-0.93463 2.31432,-0.93463 1.33519,0 2.26982,0.93463 0.93463,0.934631 0.93463,2.314323 0,1.37969 -0.93463,2.31432 -0.93463,0.93463 -2.26982,0.93463 z m 2.49235,3.24895 v 24.52292 h -5.07371 v -24.52292 z"
         style="font-weight:500;-inkscape-font-specification:'Poppins Medium'"
         id="path322" />
      <path
         d="m 152.20832,108.92616 q 1.11266,-1.86926 2.93741,-2.8929 1.86926,-1.06815 4.40611,-1.06815 v 5.25173 h -1.29068 q -2.98191,0 -4.53963,1.51321 -1.51321,1.51321 -1.51321,5.25173 v 12.9068 h -5.07371 v -24.52292 h 5.07371 z"
         style="font-weight:500;-inkscape-font-specification:'Poppins Medium'"
         id="path324" />
      <path
         d="m 173.92738,117.64938 11.30457,12.2392 H 178.378 l -9.07927,-10.54797 v 10.54797 h -5.0737 V 96.953993 h 5.0737 v 19.137667 l 8.90124,-10.726 h 7.03198 z"
         style="font-weight:500;-inkscape-font-specification:'Poppins Medium'"
         id="path326" />
      <path
         d="m 199.51849,130.28914 q -3.47149,0 -6.27538,-1.55772 -2.80389,-1.60222 -4.40611,-4.45062 -1.60222,-2.8929 -1.60222,-6.67593 0,-3.73852 1.64673,-6.63142 1.64673,-2.89291 4.49512,-4.45062 2.8484,-1.55772 6.36439,-1.55772 3.51599,0 6.36438,1.55772 2.8484,1.55771 4.49513,4.45062 1.64673,2.8929 1.64673,6.63142 0,3.73852 -1.69124,6.63142 -1.69123,2.89291 -4.62864,4.49513 -2.8929,1.55772 -6.40889,1.55772 z m 0,-4.40612 q 1.95827,0 3.64951,-0.93463 1.73574,-0.93463 2.80389,-2.80389 1.06815,-1.86926 1.06815,-4.53963 0,-2.67037 -1.02365,-4.49513 -1.02364,-1.86926 -2.71488,-2.80389 -1.69123,-0.93463 -3.6495,-0.93463 -1.95828,0 -3.64951,0.93463 -1.64673,0.93463 -2.62587,2.80389 -0.97913,1.82476 -0.97913,4.49513 0,3.96105 2.00277,6.14185 2.04729,2.1363 5.11822,2.1363 z"
         style="font-weight:500;-inkscape-font-specification:'Poppins Medium'"
         id="path328" />
      <path
         d="m 226.7563,125.34895 6.94297,-19.98329 h 5.38525 l -9.3463,24.52292 h -6.05285 l -9.30179,-24.52292 h 5.42975 z"
         style="font-weight:500;-inkscape-font-specification:'Poppins Medium'"
         id="path330" />
      <path
         d="m 245.49343,102.11671 q -1.37969,0 -2.31432,-0.93463 -0.93463,-0.93463 -0.93463,-2.31432 0,-1.379692 0.93463,-2.314323 0.93463,-0.93463 2.31432,-0.93463 1.33518,0 2.26981,0.93463 0.93464,0.934631 0.93464,2.314323 0,1.37969 -0.93464,2.31432 -0.93463,0.93463 -2.26981,0.93463 z m 2.49235,3.24895 v 24.52292 h -5.07371 v -24.52292 z"
         style="font-weight:500;-inkscape-font-specification:'Poppins Medium'"
         id="path332" />
      <path
         d="m 252.97047,117.60487 q 0,-3.78303 1.51321,-6.63142 1.55772,-2.89291 4.27259,-4.45062 2.71488,-1.55772 6.23087,-1.55772 4.45062,0 7.34352,2.1363 2.93741,2.09179 3.96106,6.00833 h -5.47427 q -0.66759,-1.82475 -2.13629,-2.84839 -1.46871,-1.02365 -3.69402,-1.02365 -3.11543,0 -4.98469,2.22531 -1.82476,2.18081 -1.82476,6.14186 0,3.96105 1.82476,6.18636 1.86926,2.22531 4.98469,2.22531 4.40611,0 5.83031,-3.87204 h 5.47427 q -1.06815,3.73852 -4.00556,5.96383 -2.93741,2.18081 -7.29902,2.18081 -3.51599,0 -6.23087,-1.55772 -2.71487,-1.60222 -4.27259,-4.45062 -1.51321,-2.8929 -1.51321,-6.67593 z m 16.28927,-18.826123 -9.83587,4.851173 v -3.738518 l 9.83587,-5.429756 z"
         style="font-weight:500;-inkscape-font-specification:'Poppins Medium'"
         id="path334" />
    </g>
    <g
       aria-label="KUĆNI SAVET ONLINE"
       transform="scale(1.0059757,0.9940598)"
       id="text1760"
       style="font-weight:600;font-size:18.1107px;font-family:Poppins;-inkscape-font-specification:'Poppins Semi-Bold';opacity:1;fill:#867d76;stroke-width:0.878899;stroke-linecap:square;paint-order:fill markers stroke">
      <path
         d="m 104.88012,155.63762 h -1.77746 l -4.660326,-6.28746 -1.379526,1.23804 v 5.04942 h -1.503329 v -12.92864 h 1.503329 v 6.44664 q 0.504058,-0.57481 1.034645,-1.14077 0.530587,-0.5748 1.05233,-1.15844 l 3.776007,-4.14743 h 1.75978 l -5.146689,5.60654 z"
         style="font-weight:normal;font-family:'Open Sans';-inkscape-font-specification:'Open Sans'"
         id="path337" />
      <path
         d="m 116.42923,142.70898 v 8.36559 q 0,1.37068 -0.55712,2.4407 -0.54827,1.07002 -1.6625,1.68904 -1.11423,0.61017 -2.79443,0.61017 -2.39648,0 -3.6522,-1.29994 -1.24688,-1.29993 -1.24688,-3.47534 v -8.33022 h 1.51217 v 8.37443 q 0,1.64482 0.86663,2.53798 0.87547,0.89315 2.60872,0.89315 1.18497,0 1.93664,-0.42447 0.76051,-0.43331 1.12307,-1.20266 0.37141,-0.77819 0.37141,-1.79515 v -8.38328 z"
         style="font-weight:normal;font-family:'Open Sans';-inkscape-font-specification:'Open Sans'"
         id="path339" />
      <path
         d="m 125.37846,143.84975 q -1.07001,0 -1.9278,0.37141 -0.84893,0.36256 -1.45027,1.06117 -0.59249,0.68976 -0.91084,1.67135 -0.31835,0.98159 -0.31835,2.21078 0,1.62713 0.50406,2.8298 0.5129,1.19382 1.52101,1.84821 1.01696,0.65439 2.53798,0.65439 0.86662,0 1.62713,-0.14149 0.76935,-0.15034 1.49449,-0.37141 v 1.30878 q -0.70745,0.26529 -1.48565,0.38909 -0.77819,0.13265 -1.84821,0.13265 -1.97201,0 -3.29848,-0.81357 -1.31762,-0.82241 -1.98086,-2.31689 -0.65439,-1.49449 -0.65439,-3.5284 0,-1.46796 0.40679,-2.67947 0.41562,-1.22035 1.20266,-2.10466 0.79588,-0.88431 1.94549,-1.36184 1.15844,-0.48637 2.65293,-0.48637 0.98159,0 1.89243,0.19455 0.91084,0.19455 1.64482,0.55711 l -0.60134,1.27341 q -0.61901,-0.28298 -1.36184,-0.48637 -0.73397,-0.21223 -1.59176,-0.21223 z m 2.13119,-5.3324 v 0.17686 q -0.17686,0.25645 -0.48637,0.61902 -0.30066,0.35372 -0.67207,0.75166 -0.37141,0.3891 -0.75167,0.74282 -0.37141,0.35373 -0.68976,0.61018 h -0.98159 v -0.21224 q 0.28298,-0.33603 0.61902,-0.80472 0.33604,-0.47753 0.65439,-0.97274 0.31835,-0.50406 0.53059,-0.91084 z"
         style="font-weight:normal;font-family:'Open Sans';-inkscape-font-specification:'Open Sans'"
         id="path341" />
      <path
         d="m 141.36682,155.63762 h -1.73325 l -7.04797,-10.85935 h -0.0707 q 0.0265,0.43332 0.0619,0.99043 0.0354,0.54828 0.0531,1.17614 0.0265,0.61901 0.0265,1.26456 v 7.42822 h -1.39721 v -12.92864 h 1.7244 l 7.02144,10.82398 h 0.0619 q -0.0177,-0.30951 -0.0442,-0.87547 -0.0265,-0.5748 -0.0531,-1.22919 -0.0177,-0.66324 -0.0177,-1.2292 v -7.49012 h 1.4149 z"
         style="font-weight:normal;font-family:'Open Sans';-inkscape-font-specification:'Open Sans'"
         id="path343" />
      <path
         d="m 144.89522,155.63762 v -12.92864 h 1.50333 v 12.92864 z"
         style="font-weight:normal;font-family:'Open Sans';-inkscape-font-specification:'Open Sans'"
         id="path345" />
      <path
         d="m 161.95359,152.19765 q 0,1.1496 -0.5748,1.96317 -0.56596,0.80472 -1.59176,1.22919 -1.0258,0.42447 -2.41417,0.42447 -0.73398,0 -1.38837,-0.0707 -0.65439,-0.0708 -1.20267,-0.2034 -0.54827,-0.13264 -0.9639,-0.32719 v -1.44143 q 0.66324,0.27414 1.61829,0.5129 0.95506,0.22992 1.99855,0.22992 0.97274,0 1.64482,-0.25645 0.67207,-0.26529 1.01696,-0.75166 0.35372,-0.49522 0.35372,-1.18498 0,-0.66323 -0.29182,-1.10539 -0.29183,-0.451 -0.97275,-0.81357 -0.67207,-0.37141 -1.83936,-0.78703 -0.82241,-0.29183 -1.45027,-0.63671 -0.62787,-0.35372 -1.05233,-0.79588 -0.42447,-0.44215 -0.64555,-1.0258 -0.21224,-0.58364 -0.21224,-1.33531 0,-1.03464 0.52175,-1.76862 0.53058,-0.74282 1.45911,-1.13192 0.93737,-0.39794 2.14888,-0.39794 1.03464,0 1.91011,0.19455 0.88431,0.19455 1.61829,0.52174 l -0.46868,1.2911 q -0.69861,-0.29183 -1.48565,-0.48638 -0.77819,-0.19454 -1.60944,-0.19454 -0.83126,0 -1.40606,0.2476 -0.56596,0.23877 -0.86663,0.68092 -0.30066,0.44216 -0.30066,1.05233 0,0.68092 0.28298,1.13192 0.29182,0.451 0.91968,0.80473 0.63671,0.34488 1.68019,0.72513 1.14077,0.41563 1.93665,0.88431 0.79588,0.45985 1.2115,1.13192 0.41563,0.66324 0.41563,1.68904 z"
         style="font-weight:normal;font-family:'Open Sans';-inkscape-font-specification:'Open Sans'"
         id="path347" />
      <path
         d="m 172.69797,155.63762 -1.59176,-4.10321 h -5.18206 l -1.58292,4.10321 h -1.52102 l 5.05827,-12.98169 h 1.35299 l 5.02289,12.98169 z m -2.04276,-5.43852 -1.51217,-4.07667 q -0.0531,-0.15918 -0.17686,-0.52175 -0.11496,-0.36256 -0.23877,-0.75166 -0.1238,-0.3891 -0.20339,-0.62786 -0.0884,0.36256 -0.19455,0.72513 -0.0973,0.35373 -0.19454,0.66324 -0.0973,0.30066 -0.16802,0.5129 l -1.53871,4.07667 z"
         style="font-weight:normal;font-family:'Open Sans';-inkscape-font-specification:'Open Sans'"
         id="path349" />
      <path
         d="m 185.06949,142.70898 -4.64263,12.92864 h -1.51218 l -4.64263,-12.92864 h 1.57407 l 3.02435,8.51592 q 0.1857,0.51291 0.32719,0.98159 0.15034,0.46869 0.2653,0.902 0.11496,0.43331 0.20339,0.84009 0.0884,-0.40678 0.20339,-0.84009 0.11496,-0.44216 0.26529,-0.91084 0.15034,-0.47753 0.33604,-0.99927 l 3.00666,-8.4894 z"
         style="font-weight:normal;font-family:'Open Sans';-inkscape-font-specification:'Open Sans'"
         id="path351" />
      <path
         d="m 194.03642,155.63762 h -7.1983 v -12.92864 h 7.1983 v 1.32647 h -5.69497 v 4.1828 h 5.36777 v 1.30878 h -5.36777 v 4.78412 h 5.69497 z"
         style="font-weight:normal;font-family:'Open Sans';-inkscape-font-specification:'Open Sans'"
         id="path353" />
      <path
         d="m 200.87214,155.63762 h -1.51217 v -11.60217 h -4.06784 v -1.32647 h 9.63016 v 1.32647 h -4.05015 z"
         style="font-weight:normal;font-family:'Open Sans';-inkscape-font-specification:'Open Sans'"
         id="path355" />
      <path
         d="m 222.79422,149.15562 q 0,1.49448 -0.38025,2.72367 -0.38025,1.22035 -1.13192,2.10467 -0.74282,0.87546 -1.84821,1.35299 -1.10539,0.47753 -2.5645,0.47753 -1.50333,0 -2.62641,-0.47753 -1.11423,-0.47753 -1.85705,-1.36184 -0.73398,-0.88431 -1.10539,-2.1135 -0.36257,-1.22919 -0.36257,-2.72368 0,-1.98086 0.65439,-3.47535 0.65439,-1.49448 1.98086,-2.32573 1.33531,-0.83126 3.3427,-0.83126 1.91895,0 3.22773,0.82241 1.31763,0.82241 1.9897,2.3169 0.68092,1.48564 0.68092,3.51072 z m -10.29338,0 q 0,1.64481 0.46868,2.84748 0.46869,1.20266 1.43259,1.85705 0.97274,0.65439 2.46723,0.65439 1.50333,0 2.45838,-0.65439 0.9639,-0.65439 1.42374,-1.85705 0.45985,-1.20267 0.45985,-2.84748 0,-2.50261 -1.05233,-3.90866 -1.04349,-1.4149 -3.26311,-1.4149 -1.50333,0 -2.47608,0.64555 -0.97274,0.64554 -1.45027,1.83937 -0.46868,1.18497 -0.46868,2.83864 z"
         style="font-weight:normal;font-family:'Open Sans';-inkscape-font-specification:'Open Sans'"
         id="path357" />
      <path
         d="m 235.77592,155.63762 h -1.73325 l -7.04796,-10.85935 h -0.0707 q 0.0265,0.43332 0.0619,0.99043 0.0354,0.54828 0.0531,1.17614 0.0265,0.61901 0.0265,1.26456 v 7.42822 h -1.39722 v -12.92864 h 1.72441 l 7.02143,10.82398 h 0.0619 q -0.0177,-0.30951 -0.0442,-0.87547 -0.0265,-0.5748 -0.0531,-1.22919 -0.0177,-0.66324 -0.0177,-1.2292 v -7.49012 h 1.41489 z"
         style="font-weight:normal;font-family:'Open Sans';-inkscape-font-specification:'Open Sans'"
         id="path359" />
      <path
         d="m 239.30432,155.63762 v -12.92864 h 1.50333 v 11.58449 h 5.73918 v 1.34415 z"
         style="font-weight:normal;font-family:'Open Sans';-inkscape-font-specification:'Open Sans'"
         id="path361" />
      <path
         d="m 248.75761,155.63762 v -12.92864 h 1.50333 v 12.92864 z"
         style="font-weight:normal;font-family:'Open Sans';-inkscape-font-specification:'Open Sans'"
         id="path363" />
      <path
         d="m 263.92355,155.63762 h -1.73325 l -7.04796,-10.85935 h -0.0708 q 0.0265,0.43332 0.0619,0.99043 0.0354,0.54828 0.0531,1.17614 0.0265,0.61901 0.0265,1.26456 v 7.42822 h -1.39721 v -12.92864 h 1.72441 l 7.02143,10.82398 h 0.0619 q -0.0177,-0.30951 -0.0442,-0.87547 -0.0265,-0.5748 -0.0531,-1.22919 -0.0177,-0.66324 -0.0177,-1.2292 v -7.49012 h 1.4149 z"
         style="font-weight:normal;font-family:'Open Sans';-inkscape-font-specification:'Open Sans'"
         id="path365" />
      <path
         d="m 274.65026,155.63762 h -7.19829 v -12.92864 h 7.19829 v 1.32647 h -5.69497 v 4.1828 h 5.36778 v 1.30878 h -5.36778 v 4.78412 h 5.69497 z"
         style="font-weight:normal;font-family:'Open Sans';-inkscape-font-specification:'Open Sans'"
         id="path367" />
    </g>
  </g>
</svg>
